<svg xmlns="http://www.w3.org/2000/svg" x="0px" y="0px"
width="32" height="32"
viewBox="0 0 32 32"
style="fill:#fff;"><path d="M 23 4 L 23 5.8613281 L 26 6.9199219 L 26 4 L 23 4 z M 16 4.9550781 L 2 10 L 2 11.5 C 3.714 11.714 5 13.171437 5 14.898438 L 5 15 L 5 27 L 27 27 L 27 15 L 27 14.898438 C 27 13.171437 28.286 11.714 30 11.5 L 30 10 L 16 4.9550781 z M 16 8.5996094 L 25 11.707031 L 25 15 L 25 26 L 22 26 L 22 19 L 21.996094 19 A 3 3 0 0 0 19 16 A 3 3 0 0 0 16.003906 19 L 16 19 L 16 26 L 7 26 L 7 15 L 7 11.707031 L 16 8.5996094 z M 11 16 C 10.448 16 10 16.448 10 17 L 10 21 L 12 21 C 12.552 21 13 20.552 13 20 L 13 16 L 11 16 z"></path></svg>