<svg width="307.001" height="72.401" viewBox="0 0 307.001 72.401" xmlns="http://www.w3.org/2000/svg"><g id="svgGroup" stroke-linecap="round" fill-rule="evenodd" font-size="9pt" stroke="#ffffff" stroke-width="0.25mm" fill="#ffffff" style="stroke:#ffffff;stroke-width:0.25mm;fill:#ffffff"><path d="M 187.101 71.201 L 176.401 71.201 L 150.701 3.701 L 160.001 0.101 L 182.001 60.801 L 204.101 0.401 L 212.701 3.701 L 187.101 71.201 Z M 307.001 68.701 L 298.301 72.201 L 290.501 52.201 L 258.101 52.201 L 250.301 72.001 L 242.201 68.701 L 269.601 1.201 L 280.001 1.201 L 307.001 68.701 Z M 121.701 71.201 L 80.101 71.201 L 80.101 1.201 L 89.601 1.201 L 89.601 62.701 L 121.701 62.701 L 121.701 71.201 Z M 25.409 71.643 A 36.51 36.51 0 0 0 33.001 72.401 A 38.35 38.35 0 0 0 38.162 72.064 A 30.074 30.074 0 0 0 46.901 69.551 Q 53.001 66.701 57.301 61.751 Q 61.601 56.801 63.851 50.201 Q 66.101 43.601 66.101 36.101 A 48.215 48.215 0 0 0 66.022 33.323 A 41.439 41.439 0 0 0 63.851 22.101 Q 61.601 15.601 57.301 10.601 Q 53.001 5.601 46.851 2.801 A 29.925 29.925 0 0 0 40.959 0.838 A 36.42 36.42 0 0 0 33.001 0.001 A 39.35 39.35 0 0 0 26.773 0.476 A 29.661 29.661 0 0 0 15.301 4.751 Q 7.901 9.501 3.951 17.651 A 37.989 37.989 0 0 0 1.115 25.764 A 46.182 46.182 0 0 0 0.001 36.101 A 48.913 48.913 0 0 0 0.036 37.961 A 42.769 42.769 0 0 0 2.251 50.201 A 39.376 39.376 0 0 0 2.69 51.423 A 34.353 34.353 0 0 0 8.751 61.751 Q 13.001 66.701 19.101 69.551 A 29.142 29.142 0 0 0 25.409 71.643 Z M 33.001 64.201 A 26.517 26.517 0 0 0 38.949 63.566 A 19.316 19.316 0 0 0 45.901 60.501 A 22.47 22.47 0 0 0 53.226 51.63 A 27.252 27.252 0 0 0 53.751 50.451 A 34.108 34.108 0 0 0 56.073 41.522 A 43.503 43.503 0 0 0 56.401 36.101 Q 56.401 30.701 54.801 25.701 A 29.735 29.735 0 0 0 50.661 17.374 A 28.121 28.121 0 0 0 50.201 16.751 Q 47.201 12.801 42.851 10.501 A 19.921 19.921 0 0 0 35.434 8.319 A 24.578 24.578 0 0 0 33.001 8.201 A 24.086 24.086 0 0 0 26.508 9.041 A 19.545 19.545 0 0 0 20.451 11.901 A 23.148 23.148 0 0 0 12.85 21.027 A 27.785 27.785 0 0 0 12.451 21.901 A 32.793 32.793 0 0 0 9.997 31.088 A 41.257 41.257 0 0 0 9.701 36.101 Q 9.701 41.501 11.251 46.551 A 29.379 29.379 0 0 0 15.431 55.096 A 27.923 27.923 0 0 0 15.801 55.601 Q 18.801 59.601 23.151 61.901 A 19.921 19.921 0 0 0 30.568 64.082 A 24.578 24.578 0 0 0 33.001 64.201 Z M 140.701 71.201 L 131.201 71.201 L 131.201 1.201 L 140.701 1.201 L 140.701 71.201 Z M 232.201 71.201 L 222.701 71.201 L 222.701 1.201 L 232.201 1.201 L 232.201 71.201 Z M 274.301 10.601 L 261.101 44.201 L 287.401 44.201 L 274.301 10.601 Z" vector-effect="non-scaling-stroke"/></g></svg>